<?xml version="1.0" encoding="iso-8859-1"?>
<!-- Generator: Adobe Illustrator 19.0.0, SVG Export Plug-In . SVG Version: 6.00 Build 0)  -->
<svg version="1.1" id="Layer_1" xmlns="http://www.w3.org/2000/svg" xmlns:xlink="http://www.w3.org/1999/xlink" x="0px" y="0px"
	 viewBox="0 0 487.572 487.572" style="enable-background:new 0 0 487.572 487.572;" xml:space="preserve">
<g>
	<path style="fill:#123866;" d="M14.308,127.703c-4,4-8.8,4-12,0.8l0,0c-3.2-3.2-3.2-8.8,0.8-12l80.8-81.6c4-4,8.8-4,12-0.8l0,0
		c3.2,3.2,3.2,8.8-0.8,12L14.308,127.703z"/>
	<path style="fill:#123866;" d="M40.708,154.103c-4,4-9.6,4-12.8,0l0,0c-4-4-4-9.6,0-12.8l80-81.6c4-4,9.6-4,12.8,0l0,0
		c4,4,4,9.6,0,12.8L40.708,154.103z"/>
	<path style="fill:#123866;" d="M64.708,178.103c-4,4-9.6,4-12.8,0l0,0c-4-4-4-9.6,0-12.8l88-88c4-4,9.6-4,12.8,0l0,0
		c4,4,4,9.6,0,12.8L64.708,178.103z"/>
	<path style="fill:#123866;" d="M89.508,202.903c-4,4-9.6,4-12.8,0l0,0c-4-4-4-9.6,0-12.8l94.4-94.4c4-4,9.6-4,12.8,0l0,0
		c4,4,4,9.6,0,12.8L89.508,202.903z"/>
	<path style="fill:#123866;" d="M114.308,227.703c-4,4-9.6,4-12.8,0l0,0c-4-4-4-9.6,0-12.8l94.4-94.4c4-4,9.6-4,12.8,0l0,0
		c4,4,4,9.6,0,12.8L114.308,227.703z"/>
	<path style="fill:#123866;" d="M139.108,252.503c-4,4-9.6,4-12.8,0l0,0c-4-4-4-9.6,0-12.8l93.6-94.4c4-4,9.6-4,12.8,0l0,0
		c4,4,4,9.6,0,12.8L139.108,252.503z"/>
	<path style="fill:#123866;" d="M163.908,277.303c-4,4-9.6,4-12.8,0l0,0c-4-4-4-9.6,0-12.8l94.4-94.4c4-4,9.6-4,12.8,0l0,0
		c4,4,4,9.6,0,12.8L163.908,277.303z"/>
	<path style="fill:#123866;" d="M187.908,301.303c-4,4-9.6,4-12.8,0l0,0c-4-4-4-9.6,0-12.8l94.4-94.4c4-4,9.6-4,12.8,0l0,0
		c4,4,4,9.6,0,12.8L187.908,301.303z"/>
	<path style="fill:#123866;" d="M212.708,326.103c-4,4-9.6,4-12.8,0l0,0c-4-4-4-9.6,0-12.8l94.4-94.4c4-4,9.6-4,12.8,0l0,0
		c4,4,4,9.6,0,12.8L212.708,326.103z"/>
	<path style="fill:#123866;" d="M241.508,355.703c-4,4-10.4,2.4-15.2-2.4l0,0c-4.8-4.8-5.6-12-2.4-15.2l94.4-94.4
		c4-4,10.4-2.4,15.2,2.4l0,0c4.8,4.8,5.6,12,2.4,15.2L241.508,355.703z"/>
	<path style="fill:#123866;" d="M354.308,315.703c3.2-7.2,4-16,0.8-24c-5.6-16-23.2-24-39.2-17.6c-11.2,4-18.4,15.2-19.2,26.4
		c3.2-3.2,6.4-5.6,11.2-7.2c13.6-5.6,28.8,0,36.8,12.8L354.308,315.703z"/>
</g>
<path style="fill:#00233F;" d="M261.508,210.103c184,192.8,177.6,289.6,219.2,229.6c13.6-20,27.2-34.4-172.8-234.4
	c-111.2-112.8-216-189.6-233.6-172.8C65.508,42.103,87.908,27.703,261.508,210.103z"/>
<path style="fill:#123866;" d="M261.508,210.103c184,192.8,177.6,289.6,219.2,229.6"/>
<circle style="fill:#DD7B19;" cx="457.508" cy="416.503" r="12.8"/>
<path style="fill:#DB5B1B;" d="M470.308,416.503c0,7.2-5.6,12.8-12.8,12.8c-7.2,0-12.8-5.6-12.8-12.8"/>
<g>
</g>
<g>
</g>
<g>
</g>
<g>
</g>
<g>
</g>
<g>
</g>
<g>
</g>
<g>
</g>
<g>
</g>
<g>
</g>
<g>
</g>
<g>
</g>
<g>
</g>
<g>
</g>
<g>
</g>
</svg>
