<?xml version="1.0" encoding="iso-8859-1"?>
<!-- Generator: Adobe Illustrator 19.0.0, SVG Export Plug-In . SVG Version: 6.00 Build 0)  -->
<svg version="1.1" id="Layer_1" xmlns="http://www.w3.org/2000/svg" xmlns:xlink="http://www.w3.org/1999/xlink" x="0px" y="0px"
	 viewBox="0 0 484 484" style="enable-background:new 0 0 484 484;" xml:space="preserve">
<path style="fill:#960E08;" d="M0,209.6c7.2,88,112.8,203.2,241.6,203.2S476,297.6,483.2,209.6H0z"/>
<path style="fill:#770606;" d="M240.8,412.8c128.8,0,235.2-115.2,242.4-203.2H241.6"/>
<path style="fill:#CE1906;" d="M316.8,71.2c-30.4,0-56,12.8-75.2,33.6c-19.2-21.6-44.8-33.6-75.2-33.6C100,71.2,28,129.6,0,209.6
	h196.8h90.4H484C455.2,129.6,383.2,71.2,316.8,71.2z"/>
<path style="fill:#B51104;" d="M289.6,209.6h193.6c-28.8-80-100.8-138.4-166.4-138.4c-30.4,0-54.4,12.8-73.6,34.4"/>
<ellipse transform="matrix(-0.5693 -0.8221 0.8221 -0.5693 63.3884 275.8964)" style="fill:#E55145;" cx="103.961" cy="121.344" rx="16.8" ry="51.999"/>
<ellipse transform="matrix(-0.739 0.6737 -0.6737 -0.739 394.647 476.8537)" style="fill:#CE1906;" cx="104.955" cy="314.871" rx="20.8" ry="64.8"/>
<path style="fill:#540200;" d="M332.8,209.6c-10.4-16-38.4-28-63.2-28c-12,0-20.8,3.2-28.8,8c-7.2-4.8-16.8-8-28.8-8
	c-24.8,0-52,12-63.2,28l0,0c3.2,24,42.4,42.4,91.2,42.4C289.6,252,329.6,233.6,332.8,209.6L332.8,209.6z"/>
<g>
</g>
<g>
</g>
<g>
</g>
<g>
</g>
<g>
</g>
<g>
</g>
<g>
</g>
<g>
</g>
<g>
</g>
<g>
</g>
<g>
</g>
<g>
</g>
<g>
</g>
<g>
</g>
<g>
</g>
</svg>
